<svg xmlns="http://www.w3.org/2000/svg" width="41.581" height="41.581" viewBox="0 0 41.581 41.581">
  <g id="Group_3825" data-name="Group 3825" transform="translate(-791.857 -160.08)">
    <rect id="Rectangle_2069" data-name="Rectangle 2069" width="41.581" height="41.581" rx="5.871" transform="translate(791.857 160.08)" fill="#333"/>
    <g id="Group_3824" data-name="Group 3824">
      <path id="Path_1212" data-name="Path 1212" d="M815.431,178.284a9.031,9.031,0,0,0-6.481-.935,8.369,8.369,0,0,0-5.671,4.185,9.157,9.157,0,0,0-1.2,3.671,8.58,8.58,0,0,0,.7,4.4,8.725,8.725,0,0,0,3.739,4.184,8.825,8.825,0,0,0,3.284,1.115,8.694,8.694,0,0,0,4.133-.421,9.126,9.126,0,0,0,2.7-1.555,8.557,8.557,0,0,0,2.008-2.334,9.22,9.22,0,0,0,1.233-4.085,8.4,8.4,0,0,0-1-4.631A8.936,8.936,0,0,0,815.431,178.284Zm-.868,7.948a3.7,3.7,0,0,1-.5,1.646,3.4,3.4,0,0,1-.809.941,3.68,3.68,0,0,1-1.087.627,3.61,3.61,0,0,1-4.5-1.966,3.463,3.463,0,0,1-.281-1.775,3.676,3.676,0,0,1,.481-1.48,3.379,3.379,0,0,1,2.286-1.687,3.569,3.569,0,0,1,4,1.827A3.388,3.388,0,0,1,814.563,186.232Z" fill="#fff"/>
      <path id="Path_1213" data-name="Path 1213" d="M815.982,177.361a1.09,1.09,0,0,0,1.456-.17l3.794-5.329.228-.342A1.828,1.828,0,0,0,818.3,169.7l-.183.369-2.713,5.951a.85.85,0,0,0,.006.721A1.368,1.368,0,0,0,815.982,177.361Z" fill="#fff"/>
      <path id="Path_1214" data-name="Path 1214" d="M826.48,174.339a1.827,1.827,0,0,0-2.481-.463l-.318.262-4.918,4.312a.854.854,0,0,0-.29.66,1.358,1.358,0,0,0,.268.806,1.089,1.089,0,0,0,1.4.443l5.647-3.3.349-.219A1.827,1.827,0,0,0,826.48,174.339Z" fill="#fff"/>
      <path id="Path_1215" data-name="Path 1215" d="M812.39,176.253a1.368,1.368,0,0,0,.832-.172.85.85,0,0,0,.425-.581l1.272-6.417.067-.406a1.828,1.828,0,0,0-3.634-.365l-.015.412-.03,6.541A1.091,1.091,0,0,0,812.39,176.253Z" fill="#fff"/>
    </g>
  </g>
</svg>
